<svg width="279" height="383" viewBox="0 0 279 383" fill="none" xmlns="http://www.w3.org/2000/svg">
<rect x="0.18515" y="199.457" width="141" height="186" rx="5" transform="rotate(-10.5346 0.18515 199.457)" fill="#D9D9D9"/>
<rect x="24.236" y="219.396" width="101" height="61" rx="5" transform="rotate(-10.5346 24.236 219.396)" fill="#FAF1A7"/>
<path fill-rule="evenodd" clip-rule="evenodd" d="M39.9179 249.028C39.817 248.485 40.1753 247.963 40.7183 247.862L43.0532 247.428C43.5962 247.327 44.1182 247.685 44.2192 248.228C44.3202 248.771 43.9619 249.293 43.4189 249.394L41.0839 249.829C40.5409 249.93 40.0189 249.571 39.9179 249.028ZM46.9228 247.726C46.8219 247.183 47.1802 246.661 47.7232 246.56L52.3931 245.691C52.9361 245.59 53.4581 245.948 53.5591 246.491C53.66 247.034 53.3017 247.556 52.7588 247.657L48.0888 248.526C47.5458 248.627 47.0238 248.269 46.9228 247.726ZM56.2627 245.989C56.1617 245.446 56.5201 244.924 57.063 244.823L61.733 243.954C62.2759 243.853 62.798 244.212 62.8989 244.755C62.9999 245.298 62.6416 245.82 62.0986 245.921L57.4287 246.789C56.8857 246.89 56.3637 246.532 56.2627 245.989ZM65.6026 244.252C65.5016 243.709 65.8599 243.187 66.4029 243.086L71.0728 242.217C71.6158 242.116 72.1378 242.475 72.2388 243.018C72.3398 243.561 71.9815 244.083 71.4385 244.184L66.7686 245.052C66.2256 245.153 65.7036 244.795 65.6026 244.252ZM74.9425 242.515C74.8415 241.972 75.1998 241.45 75.7428 241.349L80.4127 240.481C80.9557 240.38 81.4777 240.738 81.5787 241.281C81.6797 241.824 81.3213 242.346 80.7784 242.447L76.1084 243.315C75.5655 243.416 75.0434 243.058 74.9425 242.515ZM84.2823 240.778C84.1814 240.235 84.5397 239.713 85.0827 239.612L89.7526 238.744C90.2956 238.643 90.8176 239.001 90.9186 239.544C91.0195 240.087 90.6612 240.609 90.1182 240.71L85.4483 241.578C84.9053 241.679 84.3833 241.321 84.2823 240.778ZM93.6222 239.041C93.5212 238.498 93.8795 237.976 94.4225 237.875L99.0925 237.007C99.6354 236.906 100.157 237.264 100.258 237.807C100.359 238.35 100.001 238.872 99.4581 238.973L94.7882 239.841C94.2452 239.942 93.7232 239.584 93.6222 239.041ZM102.962 237.304C102.861 236.761 103.219 236.239 103.762 236.138L108.432 235.27C108.975 235.169 109.497 235.527 109.598 236.07C109.699 236.613 109.341 237.135 108.798 237.236L104.128 238.105C103.585 238.206 103.063 237.847 102.962 237.304ZM112.302 235.567C112.201 235.024 112.559 234.502 113.102 234.401L115.437 233.967C115.98 233.866 116.502 234.225 116.603 234.768C116.704 235.31 116.346 235.833 115.803 235.933L113.468 236.368C112.925 236.469 112.403 236.11 112.302 235.567Z" fill="black"/>
<path fill-rule="evenodd" clip-rule="evenodd" d="M43.5746 268.691C43.4736 268.148 43.8319 267.626 44.3749 267.525L46.7098 267.091C47.2528 266.99 47.7748 267.348 47.8758 267.891C47.9768 268.434 47.6185 268.956 47.0755 269.057L44.7405 269.491C44.1976 269.592 43.6755 269.234 43.5746 268.691ZM50.5795 267.388C50.4785 266.845 50.8368 266.323 51.3798 266.222L56.0497 265.354C56.5927 265.253 57.1147 265.611 57.2157 266.154C57.3167 266.697 56.9583 267.219 56.4154 267.32L51.7454 268.189C51.2025 268.29 50.6804 267.931 50.5795 267.388ZM59.9193 265.652C59.8184 265.109 60.1767 264.587 60.7196 264.486L65.3896 263.617C65.9326 263.516 66.4546 263.875 66.5556 264.417C66.6565 264.96 66.2982 265.482 65.7552 265.583L61.0853 266.452C60.5423 266.553 60.0203 266.195 59.9193 265.652ZM69.2592 263.915C69.1582 263.372 69.5165 262.85 70.0595 262.749L74.7295 261.88C75.2724 261.779 75.7945 262.138 75.8954 262.681C75.9964 263.224 75.6381 263.746 75.0951 263.847L70.4252 264.715C69.8822 264.816 69.3602 264.458 69.2592 263.915ZM78.5991 262.178C78.4981 261.635 78.8564 261.113 79.3994 261.012L84.0693 260.143C84.6123 260.042 85.1343 260.401 85.2353 260.944C85.3363 261.487 84.978 262.009 84.435 262.11L79.7651 262.978C79.2221 263.079 78.7001 262.721 78.5991 262.178ZM87.939 260.441C87.838 259.898 88.1963 259.376 88.7393 259.275L93.4092 258.407C93.9522 258.306 94.4742 258.664 94.5752 259.207C94.6762 259.75 94.3178 260.272 93.7749 260.373L89.1049 261.241C88.562 261.342 88.0399 260.984 87.939 260.441ZM97.2788 258.704C97.1779 258.161 97.5362 257.639 98.0791 257.538L102.749 256.67C103.292 256.569 103.814 256.927 103.915 257.47C104.016 258.013 103.658 258.535 103.115 258.636L98.4448 259.504C97.9018 259.605 97.3798 259.247 97.2788 258.704ZM106.619 256.967C106.518 256.424 106.876 255.902 107.419 255.801L112.089 254.933C112.632 254.832 113.154 255.19 113.255 255.733C113.356 256.276 112.998 256.798 112.455 256.899L107.785 257.767C107.242 257.868 106.72 257.51 106.619 256.967ZM115.959 255.23C115.858 254.687 116.216 254.165 116.759 254.064L119.094 253.63C119.637 253.529 120.159 253.887 120.26 254.43C120.361 254.973 120.002 255.495 119.46 255.596L117.125 256.031C116.582 256.132 116.06 255.773 115.959 255.23Z" fill="black"/>
<path fill-rule="evenodd" clip-rule="evenodd" d="M41.7462 258.86C41.6453 258.317 42.0036 257.795 42.5466 257.694L44.8815 257.259C45.4245 257.159 45.9465 257.517 46.0475 258.06C46.1485 258.603 45.7902 259.125 45.2472 259.226L42.9122 259.66C42.3692 259.761 41.8472 259.403 41.7462 258.86ZM48.7512 257.557C48.6502 257.014 49.0085 256.492 49.5515 256.391L54.2214 255.523C54.7644 255.422 55.2864 255.78 55.3874 256.323C55.4884 256.866 55.13 257.388 54.5871 257.489L49.9171 258.357C49.3741 258.458 48.8521 258.1 48.7512 257.557ZM58.091 255.82C57.99 255.277 58.3484 254.755 58.8913 254.654L63.5613 253.786C64.1043 253.685 64.6263 254.043 64.7272 254.586C64.8282 255.129 64.4699 255.651 63.9269 255.752L59.257 256.62C58.714 256.721 58.192 256.363 58.091 255.82ZM67.4309 254.083C67.3299 253.54 67.6882 253.018 68.2312 252.917L72.9011 252.049C73.4441 251.948 73.9661 252.306 74.0671 252.849C74.1681 253.392 73.8098 253.914 73.2668 254.015L68.5969 254.884C68.0539 254.985 67.5319 254.626 67.4309 254.083ZM76.7708 252.346C76.6698 251.803 77.0281 251.281 77.5711 251.18L82.241 250.312C82.784 250.211 83.306 250.569 83.407 251.112C83.508 251.655 83.1497 252.177 82.6067 252.278L77.9367 253.147C77.3938 253.248 76.8717 252.889 76.7708 252.346ZM86.1106 250.609C86.0097 250.067 86.368 249.544 86.911 249.444L91.5809 248.575C92.1239 248.474 92.6459 248.832 92.7469 249.375C92.8478 249.918 92.4895 250.44 91.9466 250.541L87.2766 251.41C86.7336 251.511 86.2116 251.152 86.1106 250.609ZM95.4505 248.873C95.3495 248.33 95.7079 247.808 96.2508 247.707L100.921 246.838C101.464 246.737 101.986 247.096 102.087 247.639C102.188 248.181 101.829 248.704 101.286 248.804L96.6165 249.673C96.0735 249.774 95.5515 249.416 95.4505 248.873ZM104.79 247.136C104.689 246.593 105.048 246.071 105.591 245.97L110.261 245.101C110.804 245 111.326 245.359 111.427 245.902C111.528 246.445 111.169 246.967 110.626 247.068L105.956 247.936C105.413 248.037 104.891 247.679 104.79 247.136ZM114.13 245.399C114.029 244.856 114.388 244.334 114.931 244.233L117.266 243.799C117.809 243.698 118.331 244.056 118.432 244.599C118.532 245.142 118.174 245.664 117.631 245.765L115.296 246.199C114.753 246.3 114.231 245.942 114.13 245.399Z" fill="black"/>
<path d="M59.8738 218.434C59.916 218.49 59.9713 218.702 60.0399 219.071C60.1238 219.437 60.2067 219.882 60.2884 220.407C60.3855 220.93 60.4745 221.493 60.5551 222.098C60.633 222.688 60.6974 223.248 60.7485 223.779C60.8734 224.963 60.9801 226.135 61.0686 227.295C61.1571 228.455 61.2242 229.499 61.2699 230.428C61.3309 231.354 61.3619 232.12 61.3629 232.723C61.3764 233.309 61.3812 233.634 61.3773 233.698C61.3609 233.781 61.3132 233.909 61.2342 234.082C61.1552 234.256 61.0686 234.431 60.9743 234.607C60.8771 234.768 60.777 234.914 60.6741 235.045C60.5866 235.172 60.5121 235.242 60.4507 235.253C60.3078 235.168 60.0065 234.787 59.5468 234.11C59.3485 233.813 59.1053 233.445 58.817 233.006C58.5259 232.552 58.1841 231.995 57.7915 231.337C57.3989 230.679 56.9374 229.907 56.407 229.02C55.8891 228.115 55.2965 227.065 54.6293 225.87C54.9557 227.113 55.2382 228.204 55.4767 229.145C55.7153 230.086 55.9157 230.907 56.0778 231.608C56.2553 232.306 56.3974 232.9 56.5042 233.388C56.6081 233.862 56.6901 234.26 56.7501 234.582C56.8872 235.32 56.9427 235.746 56.9166 235.863C56.763 235.891 56.5812 235.853 56.3711 235.749C56.1736 235.627 55.9794 235.481 55.7887 235.309C55.5951 235.123 55.4182 234.941 55.2582 234.764C55.1135 234.585 55.0249 234.45 54.9924 234.361C54.9657 234.302 54.8667 234.027 54.6956 233.534C54.5246 233.041 54.3124 232.413 54.0592 231.65C53.8185 230.868 53.5452 229.997 53.2395 229.037C52.9463 228.058 52.6502 227.065 52.3513 226.055C52.0677 225.043 51.8052 224.059 51.5638 223.103C51.3195 222.131 51.126 221.261 50.9831 220.493C50.9603 220.37 51.0839 220.18 51.354 219.923C51.6213 219.651 51.9297 219.387 52.2795 219.131C52.6418 218.857 52.979 218.62 53.2913 218.419C53.6007 218.202 53.7938 218.087 53.8706 218.073C53.932 218.061 54.0263 218.227 54.1535 218.568C54.296 218.907 54.4556 219.339 54.6324 219.862C54.8246 220.383 55.0358 220.963 55.2662 221.604C55.5119 222.241 55.7596 222.847 56.0093 223.42C56.2522 224.043 56.5415 224.744 56.8772 225.524C57.1594 226.186 57.5057 226.98 57.9161 227.905C58.3418 228.827 58.826 229.85 59.3686 230.972C59.2143 230.143 59.05 229.26 58.8758 228.323C58.7169 227.383 58.5594 226.45 58.4034 225.526C58.2473 224.601 58.0984 223.715 57.9567 222.867C57.8274 222.001 57.7091 221.237 57.6016 220.573C57.5095 219.907 57.434 219.373 57.375 218.971C57.3315 218.565 57.3145 218.346 57.3242 218.313C57.3588 218.242 57.5019 218.2 57.7534 218.185C58.0021 218.155 58.2795 218.151 58.5856 218.173C58.8889 218.18 59.1658 218.216 59.4162 218.281C59.6791 218.328 59.8317 218.379 59.8738 218.434ZM68.8069 220.444C68.9315 220.517 69.0643 220.675 69.205 220.919C69.3611 221.16 69.5118 221.458 69.6572 221.812C69.8026 222.166 69.946 222.553 70.0874 222.972C70.2288 223.39 70.3611 223.803 70.4844 224.209C70.6076 224.615 70.7112 225.001 70.7951 225.367C70.8915 225.715 70.9688 226.002 71.027 226.23C71.0938 226.503 71.1558 226.794 71.2129 227.101C71.2825 227.39 71.3354 227.674 71.3715 227.954C71.42 228.215 71.4489 228.456 71.4582 228.677C71.4828 228.894 71.4821 229.061 71.456 229.178C71.4067 229.425 71.2754 229.616 71.0621 229.751C70.8613 229.868 70.6256 229.968 70.3548 230.05C70.2194 230.091 69.9827 230.143 69.6447 230.206C69.3193 230.25 68.9631 230.301 68.5762 230.357C68.2018 230.395 67.8428 230.43 67.4991 230.462C67.1554 230.494 66.8963 230.51 66.7216 230.511C66.3693 230.497 66.105 230.443 65.9285 230.349C65.7674 230.251 65.5963 230.1 65.4152 229.896C65.352 229.812 65.2707 229.589 65.1714 229.226C65.0693 228.847 64.962 228.399 64.8495 227.879C64.7495 227.342 64.65 226.764 64.5511 226.147C64.4522 225.529 64.3667 224.941 64.2946 224.383C64.2378 223.821 64.1939 223.329 64.1629 222.905C64.1472 222.479 64.1726 222.188 64.2391 222.033C64.3527 221.789 64.5767 221.541 64.9111 221.288C65.2608 221.032 65.5793 220.822 65.8666 220.657C66.0116 220.583 66.2056 220.515 66.4485 220.454C66.704 220.375 66.9728 220.325 67.255 220.304C67.5498 220.265 67.8348 220.26 68.1103 220.288C68.3828 220.301 68.615 220.353 68.8069 220.444ZM68.8449 227.828C68.8642 227.76 68.8606 227.57 68.8342 227.257C68.8203 226.926 68.7796 226.536 68.7121 226.088C68.66 225.637 68.5868 225.158 68.4925 224.651C68.4136 224.141 68.3342 223.671 68.2542 223.241C68.1742 222.811 68.0917 222.453 68.0067 222.167C67.9188 221.865 67.8476 221.696 67.7929 221.658C67.7047 221.611 67.5852 221.609 67.4344 221.653C67.2962 221.679 67.1545 221.729 67.0095 221.804C66.8616 221.863 66.7319 221.935 66.6204 222.019C66.5061 222.088 66.4302 222.15 66.3927 222.205C66.2244 222.411 66.1683 222.707 66.2243 223.094C66.2443 223.202 66.2861 223.512 66.3497 224.024C66.4257 224.519 66.518 225.058 66.6266 225.642C66.7323 226.21 66.8385 226.738 66.9453 227.227C67.0674 227.713 67.1769 228.003 67.2737 228.096C67.3705 228.189 67.4937 228.254 67.6434 228.289C67.8056 228.307 67.9635 228.301 68.1171 228.273C68.2861 228.241 68.4354 228.19 68.5651 228.118C68.7073 228.028 68.8006 227.931 68.8449 227.828ZM78.2353 219.478C78.2592 219.521 78.2835 219.652 78.3082 219.869C78.3299 220.072 78.3421 220.308 78.3445 220.578C78.3595 220.829 78.364 221.067 78.3579 221.291C78.3489 221.499 78.3334 221.629 78.3112 221.681C78.1605 221.725 78.0083 221.761 77.8547 221.789C77.6982 221.803 77.5508 221.822 77.4126 221.848L76.9287 221.938C77.1019 222.954 77.2659 223.965 77.4209 224.969C77.5759 225.973 77.7046 226.879 77.807 227.687C77.9067 228.479 77.9714 229.126 78.0014 229.629C78.0467 230.129 78.0478 230.391 78.0046 230.415C77.8999 230.451 77.7684 230.427 77.6102 230.346C77.4519 230.264 77.2894 230.159 77.1226 230.031C76.9682 229.885 76.8216 229.737 76.6827 229.588C76.5562 229.421 76.4724 229.27 76.4314 229.134C76.1803 228.212 75.9455 227.333 75.7269 226.5C75.5055 225.651 75.318 224.899 75.1644 224.245C74.9602 223.488 74.7889 222.781 74.6507 222.123C74.4789 222.139 74.3056 222.147 74.1309 222.148C73.9716 222.146 73.8046 222.145 73.6299 222.146C73.4706 222.144 73.3036 222.143 73.1289 222.144C73.0924 222.119 73.0412 222.057 72.9751 221.958C72.9061 221.843 72.8358 221.721 72.764 221.592C72.7076 221.459 72.6525 221.334 72.599 221.217C72.5425 221.085 72.5086 220.988 72.4972 220.926C72.4886 220.88 72.649 220.803 72.9784 220.694C73.3231 220.582 73.7461 220.464 74.2474 220.339C74.0652 219.53 73.9108 218.828 73.784 218.231C73.6697 217.617 73.6156 217.198 73.6217 216.974C73.6135 216.674 73.685 216.375 73.8362 216.076C73.9998 215.76 74.1783 215.48 74.3715 215.238C74.5802 214.992 74.7758 214.805 74.9584 214.676C75.1534 214.528 75.286 214.472 75.356 214.506C75.4078 214.528 75.4762 214.683 75.5612 214.969C75.6433 215.24 75.7364 215.612 75.8403 216.085C75.9442 216.558 76.0561 217.118 76.1761 217.763C76.2933 218.393 76.4175 219.061 76.5489 219.767C77.0041 219.651 77.3944 219.571 77.7198 219.526C78.0424 219.466 78.2142 219.45 78.2353 219.478ZM83.7397 223.818C83.9684 223.68 84.2263 223.529 84.5136 223.364C84.8133 223.181 85.1005 223.017 85.3753 222.87C85.6471 222.708 85.8912 222.568 86.1073 222.448C86.3234 222.328 86.481 222.235 86.5799 222.169C86.5332 222.003 86.4744 221.815 86.4037 221.606C86.3455 221.379 86.2824 221.168 86.2146 220.974C86.1439 220.764 86.0712 220.587 85.9965 220.442C85.9219 220.297 85.8587 220.214 85.8069 220.191C85.6754 220.168 85.4609 220.168 85.1633 220.192C84.8782 220.197 84.5878 220.259 84.292 220.378C84.0115 220.493 83.7641 220.659 83.5497 220.873C83.3354 221.088 83.2471 221.383 83.285 221.757C83.2999 222.008 83.3494 222.317 83.4333 222.683C83.5172 223.049 83.6194 223.427 83.7397 223.818ZM88.8085 223.257C88.7989 223.29 88.626 223.386 88.2898 223.544C87.9536 223.702 87.5497 223.88 87.0781 224.079C86.6037 224.263 86.1 224.46 85.567 224.67C85.0311 224.865 84.5692 225.03 84.1812 225.166C84.3723 225.766 84.5673 226.302 84.7662 226.774C84.9623 227.23 85.1102 227.512 85.2098 227.621C85.3067 227.714 85.4251 227.796 85.5651 227.865C85.6869 227.922 85.8318 227.974 85.9997 228.023C86.1801 228.053 86.3884 228.061 86.6245 228.049C86.802 228.064 86.9519 227.973 87.0741 227.775C87.1684 227.599 87.226 227.31 87.2467 226.909C87.2828 226.505 87.2238 225.888 87.0695 225.058C87.5314 224.893 87.8915 224.778 88.1498 224.714C88.4235 224.647 88.6232 224.61 88.7489 224.603C88.9054 224.59 89.0019 224.596 89.0383 224.621C89.0622 224.664 89.0836 224.779 89.1026 224.966C89.1215 225.153 89.1259 225.391 89.1159 225.679C89.1184 225.949 89.1112 226.252 89.0944 226.589C89.0901 226.907 89.069 227.221 89.0311 227.53C88.9903 227.824 88.9376 228.096 88.8729 228.346C88.8054 228.581 88.7188 228.757 88.613 228.872C88.2958 229.217 87.8606 229.441 87.3076 229.543C86.7517 229.631 86.1921 229.655 85.6287 229.617C85.0625 229.564 84.5458 229.477 84.0785 229.357C83.6084 229.222 83.3067 229.095 83.1735 228.977C83.0795 228.899 82.9675 228.682 82.8375 228.324C82.7047 227.952 82.5652 227.501 82.4191 226.972C82.2884 226.44 82.1554 225.853 82.02 225.211C81.8847 224.568 81.7753 223.937 81.6917 223.317C81.6235 222.694 81.5793 222.114 81.559 221.577C81.554 221.038 81.5983 220.593 81.692 220.241C81.8367 219.738 82.1431 219.291 82.6111 218.902C83.0791 218.513 83.595 218.211 84.1587 217.995C84.7225 217.779 85.2726 217.66 85.8092 217.64C86.3611 217.617 86.792 217.712 87.1017 217.924C87.2839 218.049 87.4793 218.331 87.6878 218.769C87.8936 219.191 88.0718 219.723 88.2225 220.362C88.2339 220.423 88.2745 220.599 88.3441 220.888C88.4137 221.177 88.48 221.49 88.5428 221.828C88.6182 222.148 88.683 222.454 88.7373 222.746C88.7916 223.037 88.8153 223.208 88.8085 223.257ZM98.0558 216.316C98.1026 216.482 98.1204 216.749 98.1093 217.117C98.1136 217.482 98.0794 217.854 98.0069 218.233C97.9497 218.609 97.8378 218.947 97.6713 219.249C97.5202 219.547 97.314 219.72 97.0529 219.769C96.8686 219.803 96.6878 219.686 96.5106 219.417C96.3488 219.145 96.2015 218.823 96.0686 218.45C95.9483 218.059 95.837 217.675 95.7349 217.296C95.6327 216.918 95.552 216.655 95.4927 216.507C95.4324 216.439 95.3273 216.387 95.1776 216.351C95.0405 216.297 94.9104 216.281 94.7875 216.304C94.6646 216.327 94.545 216.453 94.4285 216.681C94.312 216.909 94.2012 217.168 94.0962 217.458C94.0065 217.745 93.9322 218.029 93.8732 218.31C93.8296 218.588 93.8269 218.787 93.8651 218.907C93.8823 219 94.0121 219.142 94.2547 219.336C94.4972 219.529 94.7944 219.76 95.1463 220.028C95.5106 220.278 95.8961 220.556 96.3026 220.862C96.7216 221.149 97.1113 221.451 97.4718 221.765C97.8294 222.064 98.138 222.356 98.3977 222.642C98.6727 222.924 98.8394 223.179 98.8976 223.407C98.9644 223.681 98.9533 224.048 98.8643 224.51C98.7906 224.968 98.6681 225.42 98.4966 225.865C98.3251 226.311 98.1282 226.705 97.9059 227.048C97.6837 227.391 97.4665 227.591 97.2543 227.646C97.0421 227.701 96.7057 227.645 96.2453 227.476C95.7973 227.289 95.3345 227.065 94.8569 226.804C94.3918 226.525 93.9665 226.247 93.5811 225.969C93.211 225.688 92.9886 225.475 92.914 225.33C92.8422 225.2 92.7772 225.022 92.719 224.794C92.6761 224.564 92.641 224.332 92.6135 224.099C92.6013 223.863 92.6117 223.662 92.6446 223.497C92.6746 223.317 92.7357 223.218 92.8279 223.201C92.92 223.184 93.1344 223.311 93.4709 223.582C93.8045 223.838 94.1698 224.135 94.5667 224.475C94.9607 224.799 95.3413 225.093 95.7085 225.359C96.0729 225.609 96.3242 225.721 96.4624 225.695C96.5392 225.681 96.6137 225.612 96.6859 225.487C96.7552 225.347 96.814 225.193 96.8622 225.025C96.9105 224.857 96.9434 224.692 96.9609 224.53C96.9909 224.35 96.9973 224.213 96.9802 224.121C96.9391 223.986 96.7791 223.809 96.5001 223.591C96.2211 223.372 95.875 223.135 95.4617 222.878C95.0484 222.621 94.6015 222.354 94.121 222.078C93.6377 221.787 93.1894 221.512 92.7761 221.255C92.3627 220.999 92.0166 220.761 91.7376 220.543C91.4586 220.324 91.2986 220.148 91.2575 220.012C91.2164 219.877 91.2225 219.653 91.2758 219.341C91.3262 219.014 91.403 218.658 91.5063 218.273C91.6067 217.873 91.7287 217.461 91.8724 217.037C92.0314 216.61 92.1961 216.214 92.3665 215.849C92.537 215.483 92.7112 215.181 92.8891 214.941C93.0795 214.683 93.2592 214.538 93.4282 214.507C93.7662 214.444 94.1827 214.462 94.6778 214.561C95.1883 214.656 95.6843 214.802 96.1659 214.999C96.6446 215.18 97.0647 215.388 97.4262 215.623C97.7877 215.858 97.9976 216.089 98.0558 216.316Z" fill="black"/>
<path d="M160.24 62.3438C175.762 81.7465 193.787 66.2595 201.374 51.4782C209.524 35.6004 180.048 36.1488 190.402 19.8505C200.756 3.5522 207.658 2.00001 222.999 2C246.282 1.99998 277.326 5.29715 277.326 35.3727C277.326 72.472 272.608 121.165 228.537 153.925C195.192 178.713 150.076 216.569 126.091 182.641C117.479 170.459 115.829 87.0747 126.091 74.3384C134.959 63.3318 144.718 42.9411 160.24 62.3438Z" fill="#F2E2BA"/>
<path fill-rule="evenodd" clip-rule="evenodd" d="M205.492 6.15973C200.922 8.40431 196.791 12.5908 191.668 20.6548C189.272 24.4274 189.351 26.8962 190.25 28.7927C191.247 30.897 193.385 32.642 195.975 34.6326C196.114 34.7393 196.254 34.8467 196.396 34.955C198.742 36.7526 201.387 38.7795 202.929 41.3606C203.775 42.7768 204.311 44.3823 204.317 46.2234C204.324 48.0529 203.809 50.0175 202.708 52.1632C198.826 59.7261 192.213 67.6166 184.393 71.1002C180.447 72.858 176.15 73.5091 171.768 72.3612C167.393 71.2148 163.098 68.3179 159.069 63.2808C155.292 58.5606 152.052 56.5023 149.31 55.9557C146.624 55.4205 144.096 56.2747 141.561 58.1448C138.998 60.0347 136.569 62.8634 134.178 66.0013C133.228 67.2493 132.264 68.5737 131.306 69.8914C129.929 71.7829 128.563 73.6607 127.259 75.2795C126.185 76.6125 125.152 79.0481 124.243 82.5281C123.346 85.9599 122.613 90.2353 122.041 95.0961C120.896 104.814 120.411 116.745 120.513 128.685C120.616 140.622 121.307 152.526 122.504 162.186C123.102 167.017 123.824 171.261 124.655 174.655C125.498 178.101 126.414 180.498 127.316 181.775C133.079 189.927 140.016 193.673 147.681 194.461C155.428 195.257 164.075 193.045 173.187 188.934C188.879 181.855 205.446 169.394 220.435 158.121C222.883 156.28 225.289 154.47 227.643 152.721C271.096 120.419 275.826 72.3999 275.826 35.3727C275.826 28.1258 273.962 22.5979 270.895 18.3477C267.82 14.0847 263.459 11.0013 258.302 8.78625C247.935 4.33351 234.625 3.49999 222.999 3.5C215.325 3.50001 210.085 3.90336 205.492 6.15973ZM204.169 3.46706C209.45 0.872749 215.331 0.500005 222.999 0.5C234.656 0.499992 248.509 1.31505 259.486 6.02977C265 8.39841 269.855 11.7785 273.328 16.5925C276.81 21.4193 278.826 27.5818 278.826 35.3727C278.826 72.5441 274.119 121.91 229.432 155.128C227.109 156.855 224.723 158.651 222.286 160.484C207.325 171.74 190.445 184.439 174.421 191.669C165.087 195.879 155.874 198.319 147.374 197.445C138.792 196.563 131.096 192.319 124.866 183.507C123.616 181.738 122.596 178.864 121.741 175.368C120.873 171.821 120.133 167.452 119.526 162.555C118.312 152.755 117.617 140.733 117.514 128.71C117.41 116.689 117.898 104.625 119.061 94.7453C119.643 89.8074 120.396 85.3837 121.34 81.77C122.272 78.2045 123.432 75.2483 124.923 73.3973C126.209 71.8014 127.472 70.0623 128.792 68.2456C129.752 66.9242 130.742 65.5616 131.792 64.1833C134.211 61.0087 136.854 57.8887 139.78 55.7304C142.733 53.5523 146.109 52.2589 149.896 53.0135C153.626 53.7567 157.426 56.4256 161.411 61.4067C165.143 66.071 168.922 68.5143 172.529 69.4591C176.129 70.4025 179.723 69.896 183.172 68.3598C190.141 65.2552 196.334 58.0116 200.039 50.7933C200.975 48.9695 201.322 47.478 201.317 46.2347C201.313 45.003 200.963 43.919 200.354 42.8992C199.116 40.8272 196.897 39.1228 194.38 37.1901C194.303 37.1308 194.225 37.0712 194.147 37.0115C191.682 35.1172 188.901 32.951 187.539 30.078C186.078 26.9973 186.356 23.4227 189.136 19.0462C194.367 10.812 198.864 6.07314 204.169 3.46706Z" fill="#B4835F"/>
<path d="M176.208 157.565C176.208 166.566 168.911 173.863 159.91 173.863C150.909 173.863 143.612 166.566 143.612 157.565C143.612 148.564 150.909 141.267 159.91 141.267C168.911 141.267 176.208 148.564 176.208 157.565Z" fill="#107C10"/>
<path d="M213.461 138.939C213.461 147.94 206.164 155.237 197.163 155.237C188.162 155.237 180.865 147.94 180.865 138.939C180.865 129.937 188.162 122.64 197.163 122.64C206.164 122.64 213.461 129.937 213.461 138.939Z" fill="#B4009E"/>
<path d="M247 115.92C247 123.608 240.508 129.84 232.5 129.84C224.492 129.84 218 123.608 218 115.92C218 108.232 224.492 102 232.5 102C240.508 102 247 108.232 247 115.92Z" fill="white"/>
<path d="M239.715 58.0887C239.715 67.09 232.418 74.387 223.416 74.387C214.415 74.387 207.118 67.09 207.118 58.0887C207.118 49.0874 214.415 41.7904 223.416 41.7904C232.418 41.7904 239.715 49.0874 239.715 58.0887Z" fill="#E81123"/>
<path d="M264 84.5C264 92.5081 257.508 99 249.5 99C241.492 99 235 92.5081 235 84.5C235 76.4919 241.492 70 249.5 70C257.508 70 264 76.4919 264 84.5Z" fill="black"/>
<path d="M180.865 114.879C180.865 123.88 173.568 131.177 164.567 131.177C155.565 131.177 148.268 123.88 148.268 114.879C148.268 105.878 155.565 98.5809 164.567 98.5809C173.568 98.5809 180.865 105.878 180.865 114.879Z" fill="#0078D7"/>
<path d="M218.118 94.7003C218.118 103.702 210.821 110.999 201.82 110.999C192.818 110.999 185.521 103.702 185.521 94.7003C185.521 85.699 192.818 78.402 201.82 78.402C210.821 78.402 218.118 85.699 218.118 94.7003Z" fill="#FFB900"/>
</svg>
