<svg width="279" height="383" viewBox="0 0 279 383" fill="none" xmlns="http://www.w3.org/2000/svg">
<rect x="0.18515" y="199.457" width="141" height="186" rx="5" transform="rotate(-10.5346 0.18515 199.457)" fill="#D9D9D9"/>
<rect x="24.236" y="219.396" width="101" height="61" rx="5" transform="rotate(-10.5346 24.236 219.396)" fill="#FAF1A7"/>
<line x1="40.9011" y1="248.845" x2="115.62" y2="234.95" stroke="black" stroke-width="2" stroke-linecap="round" stroke-dasharray="5 5"/>
<line x1="44.5577" y1="268.508" x2="119.277" y2="254.613" stroke="black" stroke-width="2" stroke-linecap="round" stroke-dasharray="5 5"/>
<line x1="42.7294" y1="258.677" x2="117.448" y2="244.782" stroke="black" stroke-width="2" stroke-linecap="round" stroke-dasharray="5 5"/>
<path d="M59.8738 218.434C59.916 218.49 59.9713 218.702 60.0399 219.071C60.1238 219.437 60.2067 219.882 60.2884 220.407C60.3855 220.93 60.4745 221.493 60.5551 222.098C60.633 222.688 60.6974 223.248 60.7485 223.779C60.8734 224.963 60.9801 226.135 61.0686 227.295C61.1571 228.455 61.2242 229.499 61.2699 230.428C61.3309 231.354 61.3619 232.12 61.3629 232.723C61.3764 233.309 61.3812 233.634 61.3773 233.698C61.3609 233.781 61.3132 233.909 61.2342 234.082C61.1552 234.256 61.0686 234.431 60.9743 234.607C60.8771 234.768 60.777 234.914 60.6741 235.045C60.5866 235.172 60.5121 235.242 60.4507 235.253C60.3078 235.168 60.0065 234.787 59.5468 234.11C59.3485 233.813 59.1053 233.445 58.817 233.006C58.5259 232.552 58.1841 231.995 57.7915 231.337C57.3989 230.679 56.9374 229.907 56.407 229.02C55.8891 228.115 55.2965 227.065 54.6293 225.87C54.9557 227.113 55.2382 228.204 55.4767 229.145C55.7153 230.086 55.9157 230.907 56.0778 231.608C56.2553 232.306 56.3974 232.9 56.5042 233.388C56.6081 233.862 56.6901 234.26 56.7501 234.582C56.8872 235.32 56.9427 235.746 56.9166 235.863C56.763 235.891 56.5812 235.853 56.3711 235.749C56.1736 235.627 55.9794 235.481 55.7887 235.309C55.5951 235.123 55.4182 234.941 55.2582 234.764C55.1135 234.585 55.0249 234.45 54.9924 234.361C54.9657 234.302 54.8667 234.027 54.6956 233.534C54.5246 233.041 54.3124 232.413 54.0592 231.65C53.8185 230.868 53.5452 229.997 53.2395 229.037C52.9463 228.058 52.6502 227.065 52.3513 226.055C52.0677 225.043 51.8052 224.059 51.5638 223.103C51.3195 222.131 51.126 221.261 50.9831 220.493C50.9603 220.37 51.0839 220.18 51.354 219.923C51.6213 219.651 51.9297 219.387 52.2795 219.131C52.6418 218.857 52.979 218.62 53.2913 218.419C53.6007 218.202 53.7938 218.087 53.8706 218.073C53.932 218.061 54.0263 218.227 54.1535 218.568C54.296 218.907 54.4556 219.339 54.6324 219.862C54.8246 220.383 55.0358 220.963 55.2662 221.604C55.5119 222.241 55.7596 222.847 56.0093 223.42C56.2522 224.043 56.5415 224.744 56.8772 225.524C57.1594 226.186 57.5057 226.98 57.9161 227.905C58.3418 228.827 58.826 229.85 59.3686 230.972C59.2143 230.143 59.05 229.26 58.8758 228.323C58.7169 227.383 58.5594 226.45 58.4034 225.526C58.2473 224.601 58.0984 223.715 57.9567 222.867C57.8274 222.001 57.7091 221.237 57.6016 220.573C57.5095 219.907 57.434 219.373 57.375 218.971C57.3315 218.565 57.3145 218.346 57.3242 218.313C57.3588 218.242 57.5019 218.2 57.7534 218.185C58.0021 218.155 58.2795 218.151 58.5856 218.173C58.8889 218.18 59.1658 218.216 59.4162 218.281C59.6791 218.328 59.8317 218.379 59.8738 218.434ZM68.8069 220.444C68.9315 220.517 69.0643 220.675 69.205 220.919C69.3611 221.16 69.5118 221.458 69.6572 221.812C69.8026 222.166 69.946 222.553 70.0874 222.972C70.2288 223.39 70.3611 223.803 70.4844 224.209C70.6076 224.615 70.7112 225.001 70.7951 225.367C70.8915 225.715 70.9688 226.002 71.027 226.23C71.0938 226.503 71.1558 226.794 71.2129 227.101C71.2825 227.39 71.3354 227.674 71.3715 227.954C71.42 228.215 71.4489 228.456 71.4582 228.677C71.4828 228.894 71.4821 229.061 71.456 229.178C71.4067 229.425 71.2754 229.616 71.0621 229.751C70.8613 229.868 70.6256 229.968 70.3548 230.05C70.2194 230.091 69.9827 230.143 69.6447 230.206C69.3193 230.25 68.9631 230.301 68.5762 230.357C68.2018 230.395 67.8428 230.43 67.4991 230.462C67.1554 230.494 66.8963 230.51 66.7216 230.511C66.3693 230.497 66.105 230.443 65.9285 230.349C65.7674 230.251 65.5963 230.1 65.4152 229.896C65.352 229.812 65.2707 229.589 65.1714 229.226C65.0693 228.847 64.962 228.399 64.8495 227.879C64.7495 227.342 64.65 226.764 64.5511 226.147C64.4522 225.529 64.3667 224.941 64.2946 224.383C64.2378 223.821 64.1939 223.329 64.1629 222.905C64.1472 222.479 64.1726 222.188 64.2391 222.033C64.3527 221.789 64.5767 221.541 64.9111 221.288C65.2608 221.032 65.5793 220.822 65.8666 220.657C66.0116 220.583 66.2056 220.515 66.4485 220.454C66.704 220.375 66.9728 220.325 67.255 220.304C67.5498 220.265 67.8348 220.26 68.1103 220.288C68.3828 220.301 68.615 220.353 68.8069 220.444ZM68.8449 227.828C68.8642 227.76 68.8606 227.57 68.8342 227.257C68.8203 226.926 68.7796 226.536 68.7121 226.088C68.66 225.637 68.5868 225.158 68.4925 224.651C68.4136 224.141 68.3342 223.671 68.2542 223.241C68.1742 222.811 68.0917 222.453 68.0067 222.167C67.9188 221.865 67.8476 221.696 67.7929 221.658C67.7047 221.611 67.5852 221.609 67.4344 221.653C67.2962 221.679 67.1545 221.729 67.0095 221.804C66.8616 221.863 66.7319 221.935 66.6204 222.019C66.5061 222.088 66.4302 222.15 66.3927 222.205C66.2244 222.411 66.1683 222.707 66.2243 223.094C66.2443 223.202 66.2861 223.512 66.3497 224.024C66.4257 224.519 66.518 225.058 66.6266 225.642C66.7323 226.21 66.8385 226.738 66.9453 227.227C67.0674 227.713 67.1769 228.003 67.2737 228.096C67.3705 228.189 67.4937 228.254 67.6434 228.289C67.8056 228.307 67.9635 228.301 68.1171 228.273C68.2861 228.241 68.4354 228.19 68.5651 228.118C68.7073 228.028 68.8006 227.931 68.8449 227.828ZM78.2353 219.478C78.2592 219.521 78.2835 219.652 78.3082 219.869C78.3299 220.072 78.3421 220.308 78.3445 220.578C78.3595 220.829 78.364 221.067 78.3579 221.291C78.3489 221.499 78.3334 221.629 78.3112 221.681C78.1605 221.725 78.0083 221.761 77.8547 221.789C77.6982 221.803 77.5508 221.822 77.4126 221.848L76.9287 221.938C77.1019 222.954 77.2659 223.965 77.4209 224.969C77.5759 225.973 77.7046 226.879 77.807 227.687C77.9067 228.479 77.9714 229.126 78.0014 229.629C78.0467 230.129 78.0478 230.391 78.0046 230.415C77.8999 230.451 77.7684 230.427 77.6102 230.346C77.4519 230.264 77.2894 230.159 77.1226 230.031C76.9682 229.885 76.8216 229.737 76.6827 229.588C76.5562 229.421 76.4724 229.27 76.4314 229.134C76.1803 228.212 75.9455 227.333 75.7269 226.5C75.5055 225.651 75.318 224.899 75.1644 224.245C74.9602 223.488 74.7889 222.781 74.6507 222.123C74.4789 222.139 74.3056 222.147 74.1309 222.148C73.9716 222.146 73.8046 222.145 73.6299 222.146C73.4706 222.144 73.3036 222.143 73.1289 222.144C73.0924 222.119 73.0412 222.057 72.9751 221.958C72.9061 221.843 72.8358 221.721 72.764 221.592C72.7076 221.459 72.6525 221.334 72.599 221.217C72.5425 221.085 72.5086 220.988 72.4972 220.926C72.4886 220.88 72.649 220.803 72.9784 220.694C73.3231 220.582 73.7461 220.464 74.2474 220.339C74.0652 219.53 73.9108 218.828 73.784 218.231C73.6697 217.617 73.6156 217.198 73.6217 216.974C73.6135 216.674 73.685 216.375 73.8362 216.076C73.9998 215.76 74.1783 215.48 74.3715 215.238C74.5802 214.992 74.7758 214.805 74.9584 214.676C75.1534 214.528 75.286 214.472 75.356 214.506C75.4078 214.528 75.4762 214.683 75.5612 214.969C75.6433 215.24 75.7364 215.612 75.8403 216.085C75.9442 216.558 76.0561 217.118 76.1761 217.763C76.2933 218.393 76.4175 219.061 76.5489 219.767C77.0041 219.651 77.3944 219.571 77.7198 219.526C78.0424 219.466 78.2142 219.45 78.2353 219.478ZM83.7397 223.818C83.9684 223.68 84.2263 223.529 84.5136 223.364C84.8133 223.181 85.1005 223.017 85.3753 222.87C85.6471 222.708 85.8912 222.568 86.1073 222.448C86.3234 222.328 86.481 222.235 86.5799 222.169C86.5332 222.003 86.4744 221.815 86.4037 221.606C86.3455 221.379 86.2824 221.168 86.2146 220.974C86.1439 220.764 86.0712 220.587 85.9965 220.442C85.9219 220.297 85.8587 220.214 85.8069 220.191C85.6754 220.168 85.4609 220.168 85.1633 220.192C84.8782 220.197 84.5878 220.259 84.292 220.378C84.0115 220.493 83.7641 220.659 83.5497 220.873C83.3354 221.088 83.2471 221.383 83.285 221.757C83.2999 222.008 83.3494 222.317 83.4333 222.683C83.5172 223.049 83.6194 223.427 83.7397 223.818ZM88.8085 223.257C88.7989 223.29 88.626 223.386 88.2898 223.544C87.9536 223.702 87.5497 223.88 87.0781 224.079C86.6037 224.263 86.1 224.46 85.567 224.67C85.0311 224.865 84.5692 225.03 84.1812 225.166C84.3723 225.766 84.5673 226.302 84.7662 226.774C84.9623 227.23 85.1102 227.512 85.2098 227.621C85.3067 227.714 85.4251 227.796 85.5651 227.865C85.6869 227.922 85.8318 227.974 85.9997 228.023C86.1801 228.053 86.3884 228.061 86.6245 228.049C86.802 228.064 86.9519 227.973 87.0741 227.775C87.1684 227.599 87.226 227.31 87.2467 226.909C87.2828 226.505 87.2238 225.888 87.0695 225.058C87.5314 224.893 87.8915 224.778 88.1498 224.714C88.4235 224.647 88.6232 224.61 88.7489 224.603C88.9054 224.59 89.0019 224.596 89.0383 224.621C89.0622 224.664 89.0836 224.779 89.1026 224.966C89.1215 225.153 89.1259 225.391 89.1159 225.679C89.1184 225.949 89.1112 226.252 89.0944 226.589C89.0901 226.907 89.069 227.221 89.0311 227.53C88.9903 227.824 88.9376 228.096 88.8729 228.346C88.8054 228.581 88.7188 228.757 88.613 228.872C88.2958 229.217 87.8606 229.441 87.3076 229.543C86.7517 229.631 86.1921 229.655 85.6287 229.617C85.0625 229.564 84.5458 229.477 84.0785 229.357C83.6084 229.222 83.3067 229.095 83.1735 228.977C83.0795 228.899 82.9675 228.682 82.8375 228.324C82.7047 227.952 82.5652 227.501 82.4191 226.972C82.2884 226.44 82.1554 225.853 82.02 225.211C81.8847 224.568 81.7753 223.937 81.6917 223.317C81.6235 222.694 81.5793 222.114 81.559 221.577C81.554 221.038 81.5983 220.593 81.692 220.241C81.8367 219.738 82.1431 219.291 82.6111 218.902C83.0791 218.513 83.595 218.211 84.1587 217.995C84.7225 217.779 85.2726 217.66 85.8092 217.64C86.3611 217.617 86.792 217.712 87.1017 217.924C87.2839 218.049 87.4793 218.331 87.6878 218.769C87.8936 219.191 88.0718 219.723 88.2225 220.362C88.2339 220.423 88.2745 220.599 88.3441 220.888C88.4137 221.177 88.48 221.49 88.5428 221.828C88.6182 222.148 88.683 222.454 88.7373 222.746C88.7916 223.037 88.8153 223.208 88.8085 223.257ZM98.0558 216.316C98.1026 216.482 98.1204 216.749 98.1093 217.117C98.1136 217.482 98.0794 217.854 98.0069 218.233C97.9497 218.609 97.8378 218.947 97.6713 219.249C97.5202 219.547 97.314 219.72 97.0529 219.769C96.8686 219.803 96.6878 219.686 96.5106 219.417C96.3488 219.145 96.2015 218.823 96.0686 218.45C95.9483 218.059 95.837 217.675 95.7349 217.296C95.6327 216.918 95.552 216.655 95.4927 216.507C95.4324 216.439 95.3273 216.387 95.1776 216.351C95.0405 216.297 94.9104 216.281 94.7875 216.304C94.6646 216.327 94.545 216.453 94.4285 216.681C94.312 216.909 94.2012 217.168 94.0962 217.458C94.0065 217.745 93.9322 218.029 93.8732 218.31C93.8296 218.588 93.8269 218.787 93.8651 218.907C93.8823 219 94.0121 219.142 94.2547 219.336C94.4972 219.529 94.7944 219.76 95.1463 220.028C95.5106 220.278 95.8961 220.556 96.3026 220.862C96.7216 221.149 97.1113 221.451 97.4718 221.765C97.8294 222.064 98.138 222.356 98.3977 222.642C98.6727 222.924 98.8394 223.179 98.8976 223.407C98.9644 223.681 98.9533 224.048 98.8643 224.51C98.7906 224.968 98.6681 225.42 98.4966 225.865C98.3251 226.311 98.1282 226.705 97.9059 227.048C97.6837 227.391 97.4665 227.591 97.2543 227.646C97.0421 227.701 96.7057 227.645 96.2453 227.476C95.7973 227.289 95.3345 227.065 94.8569 226.804C94.3918 226.525 93.9665 226.247 93.5811 225.969C93.211 225.688 92.9886 225.475 92.914 225.33C92.8422 225.2 92.7772 225.022 92.719 224.794C92.6761 224.564 92.641 224.332 92.6135 224.099C92.6013 223.863 92.6117 223.662 92.6446 223.497C92.6746 223.317 92.7357 223.218 92.8279 223.201C92.92 223.184 93.1344 223.311 93.4709 223.582C93.8045 223.838 94.1698 224.135 94.5667 224.475C94.9607 224.799 95.3413 225.093 95.7085 225.359C96.0729 225.609 96.3242 225.721 96.4624 225.695C96.5392 225.681 96.6137 225.612 96.6859 225.487C96.7552 225.347 96.814 225.193 96.8622 225.025C96.9105 224.857 96.9434 224.692 96.9609 224.53C96.9909 224.35 96.9973 224.213 96.9802 224.121C96.9391 223.986 96.7791 223.809 96.5001 223.591C96.2211 223.372 95.875 223.135 95.4617 222.878C95.0484 222.621 94.6015 222.354 94.121 222.078C93.6377 221.787 93.1894 221.512 92.7761 221.255C92.3627 220.999 92.0166 220.761 91.7376 220.543C91.4586 220.324 91.2986 220.148 91.2575 220.012C91.2164 219.877 91.2225 219.653 91.2758 219.341C91.3262 219.014 91.403 218.658 91.5063 218.273C91.6067 217.873 91.7287 217.461 91.8724 217.037C92.0314 216.61 92.1961 216.214 92.3665 215.849C92.537 215.483 92.7112 215.181 92.8891 214.941C93.0795 214.683 93.2592 214.538 93.4282 214.507C93.7662 214.444 94.1827 214.462 94.6778 214.561C95.1883 214.656 95.6843 214.802 96.1659 214.999C96.6446 215.18 97.0647 215.388 97.4262 215.623C97.7877 215.858 97.9976 216.089 98.0558 216.316Z" fill="black"/>
<path d="M160.24 62.3438C175.762 81.7465 193.787 66.2595 201.374 51.4782C209.524 35.6004 180.048 36.1488 190.402 19.8505C200.756 3.5522 207.658 2.00001 222.999 2C246.282 1.99998 277.326 5.29715 277.326 35.3727C277.326 72.472 272.608 121.165 228.537 153.925C195.192 178.713 150.076 216.569 126.091 182.641C117.479 170.459 115.829 87.0747 126.091 74.3384C134.959 63.3318 144.718 42.9411 160.24 62.3438Z" fill="#F2E2BA"/>
<path d="M160.24 62.3438C175.762 81.7465 193.787 66.2595 201.374 51.4782C209.524 35.6004 180.048 36.1488 190.402 19.8505C200.756 3.5522 207.658 2.00001 222.999 2C246.282 1.99998 277.326 5.29715 277.326 35.3727C277.326 72.472 272.608 121.165 228.537 153.925C195.192 178.713 150.076 216.569 126.091 182.641C117.479 170.459 115.829 87.0747 126.091 74.3384C134.959 63.3318 144.718 42.9411 160.24 62.3438Z" stroke="#B4835F" stroke-width="3"/>
<circle cx="159.91" cy="157.565" r="16.2983" fill="#107C10"/>
<circle cx="197.163" cy="138.939" r="16.2983" fill="#B4009E"/>
<ellipse cx="232.5" cy="115.92" rx="14.5" ry="13.92" fill="white"/>
<circle cx="223.416" cy="58.0887" r="16.2983" fill="#E81123"/>
<circle cx="249.5" cy="84.5" r="14.5" fill="black"/>
<circle cx="164.567" cy="114.879" r="16.2983" fill="#0078D7"/>
<circle cx="201.82" cy="94.7003" r="16.2983" fill="#FFB900"/>
</svg>
